<svg xmlns="http://www.w3.org/2000/svg" width="132" height="44" viewBox="0 0 132 44"><path d="M105.1,35c-7.8,0-12.4-5.8-12.4-11.8s4.6-11.8,12.4-11.8,12.4,5.9,12.4,11.8S112.9,35,105.1,35Zm0-17.9a6.1,6.1,0,1,0,6.1,6,5.9,5.9,0,0,0-5.8-6ZM44.6,29.5a6.8,6.8,0,0,0,5.5-2.9v-.3l5.2,2.9-.3.4A14.1,14.1,0,0,1,44.7,35c-7.8,0-12.4-5.9-12.4-11.9s4.6-11.8,12.4-11.8A12.1,12.1,0,0,1,56.4,23.9v.4a1.3,1.3,0,0,1-1.2,1.2H39A5.7,5.7,0,0,0,44.6,29.5Zm-.5-12.7a5.4,5.4,0,0,0-5,3.5H49.2A5.4,5.4,0,0,0,44.1,16.8Zm76,18.2a1.3,1.3,0,0,1-1.2-1.1V11.2h4.6a1.3,1.3,0,0,1,1.2,1.1,3.4,3.4,0,0,1,2.8-1.1,9.9,9.9,0,0,1,3.8.7l.7.3-1.9,4.5a1.5,1.5,0,0,1-1.2.7h-.4a3.4,3.4,0,0,0-1.4-.2,2.3,2.3,0,0,0-2.2,2.4h0V34.9h-4.8ZM30.4,30.6C26.5,33.2,22.7,35,17.3,35A17,17,0,0,1,0,17.8,17,17,0,0,1,17.3.6,17.4,17.4,0,0,1,30.4,6l.2.2L27.5,9.4a1.4,1.4,0,0,1-2,.2,11.9,11.9,0,0,0-8-3,11,11,0,0,0-11.1,11v.2A11.1,11.1,0,0,0,17.3,29h.2a14.6,14.6,0,0,0,7.3-2.3V20.9H17.9a1.1,1.1,0,0,1-1.1-1.1V15H29.7A1.4,1.4,0,0,1,31,16V29.5a1.6,1.6,0,0,1-.5,1ZM82.5,5.9a1.5,1.5,0,0,1-1.6.8c-2.5-.7-3.5.8-3.5,2.4v2.6h5.1v4.7a1.1,1.1,0,0,1-1,1.1H77.4V35H72.7a1.4,1.4,0,0,1-1.4-1.2V9.4c0-9.4,8.5-9.2,12-7.9l1,.4ZM58.8,35a1.3,1.3,0,0,1-1.2-1.1V11.2h4.6a1.3,1.3,0,0,1,1.2,1.1,3.3,3.3,0,0,1,2.8-1.1,9.9,9.9,0,0,1,3.8.7l.7.3-2,4.5a1.2,1.2,0,0,1-1.1.7h-.5a2.7,2.7,0,0,0-1.3-.2,2.3,2.3,0,0,0-2.2,2.4h0V34.9H58.8ZM88,37.8c-2.2-4-3-6.2-3-11.8V2h4.8a1.2,1.2,0,0,1,1.3,1.2h0V26.9a13.3,13.3,0,0,0,3.1,9v.2l-2.2,1.8H132V44H.1V37.9H88Zm41.4-6.6c.4,0,.7,0,.7.4s-.6.4-1,.4h-.5v-.8Zm.3,1.2a.8.8,0,0,0,.8-.7h0c0-.7-.4-.9-1-.9h-1.3v3.1h.4V32.4h.6l.8,1.4h.5Zm-.5-2.4a2.3,2.3,0,0,1,2.3,2.3,2.3,2.3,0,0,1-2.3,2.3,2.3,2.3,0,1,1,0-4.6Zm0,5a2.7,2.7,0,1,0-2.7-2.7A2.7,2.7,0,0,0,129.2,35Z" style="fill:#001740;fill-rule:evenodd"/></svg>